<svg xmlns="http://www.w3.org/2000/svg" xmlns:xlink="http://www.w3.org/1999/xlink" width="92" height="42" viewBox="0 0 92 42">
  <defs>
    <path id="appstore-a" d="M2.1875,13 L0.95703125,13 L0.95703125,3.13574219 L6.9453125,3.13574219 L6.9453125,4.24316406 L2.1875,4.24316406 L2.1875,7.63378906 L6.55566406,7.63378906 L6.55566406,8.72753906 L2.1875,8.72753906 L2.1875,13 Z M10.8349609,13.1230469 C8.86621094,13.1230469 7.54003906,11.7080078 7.54003906,9.4453125 C7.54003906,7.17578125 8.86621094,5.76757812 10.8349609,5.76757812 C12.796875,5.76757812 14.1230469,7.17578125 14.1230469,9.4453125 C14.1230469,11.7080078 12.796875,13.1230469 10.8349609,13.1230469 Z M10.8349609,12.0771484 C12.0927734,12.0771484 12.9130859,11.1201172 12.9130859,9.4453125 C12.9130859,7.77050781 12.0927734,6.81347656 10.8349609,6.81347656 C9.57714844,6.81347656 8.75,7.77050781 8.75,9.4453125 C8.75,11.1201172 9.57714844,12.0771484 10.8349609,12.0771484 Z M15.3808594,13 L15.3808594,3.13574219 L16.5703125,3.13574219 L16.5703125,13 L15.3808594,13 Z M18.2382812,13 L18.2382812,3.13574219 L19.4277344,3.13574219 L19.4277344,13 L18.2382812,13 Z M23.9804688,13.1230469 C22.0117188,13.1230469 20.6855469,11.7080078 20.6855469,9.4453125 C20.6855469,7.17578125 22.0117188,5.76757812 23.9804688,5.76757812 C25.9423828,5.76757812 27.2685547,7.17578125 27.2685547,9.4453125 C27.2685547,11.7080078 25.9423828,13.1230469 23.9804688,13.1230469 Z M23.9804688,12.0771484 C25.2382812,12.0771484 26.0585938,11.1201172 26.0585938,9.4453125 C26.0585938,7.77050781 25.2382812,6.81347656 23.9804688,6.81347656 C22.7226562,6.81347656 21.8955078,7.77050781 21.8955078,9.4453125 C21.8955078,11.1201172 22.7226562,12.0771484 23.9804688,12.0771484 Z M37.5087891,5.890625 L35.5263672,13 L34.3164062,13 L32.7099609,7.49707031 L32.6826172,7.49707031 L31.0830078,13 L29.8730469,13 L27.8837891,5.890625 L29.0664062,5.890625 L30.4882812,11.6738281 L30.515625,11.6738281 L32.1220703,5.890625 L33.2705078,5.890625 L34.8837891,11.6738281 L34.9111328,11.6738281 L36.3330078,5.890625 L37.5087891,5.890625 Z"/>
  </defs>
  <g fill="none" transform="translate(1 1)">
    <rect width="90" height="40" fill="#000" stroke="#000" rx="2"/>
    <g fill="#FFF" transform="translate(40 12)">
      <use xlink:href="#appstore-a"/>
      <use xlink:href="#appstore-a"/>
    </g>
    <path fill="#FFF" d="M0,9.41375159 L0,7.10258438 C0,6.89089435 0.173913689,6.71773302 0.386950039,6.71773302 L4.47099149,6.71773302 L2.69289033,9.79911771 L0.386950039,9.79911771 C0.173913689,9.79911771 0,9.62631276 0,9.41375159 Z M2.9092133,14.1462868 L1.60585058,15.0293185 C1.43047177,15.148508 1.30645135,15.0730741 1.33076442,14.8626116 L1.50467811,13.3518354 C1.52887239,13.1413729 1.69953906,13.055406 1.88410456,13.1605779 L2.8927802,13.7368056 C3.07702892,13.8424922 3.08459211,14.0274537 2.9092133,14.1462868 Z M3.22219459,13.2946957 L2.21351895,12.7182701 C2.02911183,12.6129398 1.96413179,12.3767387 2.07140232,12.1930444 L6.74212529,4.09651477 C6.8480891,3.91254323 7.08694323,3.84803836 7.27123155,3.95475452 L8.27990719,4.52967548 C8.4644331,4.63639165 8.52775004,4.87279072 8.42202382,5.0560891 L3.75138005,13.1531731 C3.64557463,13.3368674 3.40652251,13.3998676 3.22219459,13.2946957 Z M6.77693179,9.79911771 L8.55503295,6.71773302 L9.57887456,6.71773302 L11.0227304,9.79911771 L6.77693179,9.79911771 Z M12.5681151,10.7186586 C12.164336,10.5170265 10.1532807,5.89754308 9.63803372,4.69226419 C9.12223233,3.48694571 7.5647703,0.278610363 8.06857355,0.028946017 C8.42689435,-0.150036195 9.71358639,2.37634524 10.67815,3.8930611 C11.6413278,5.40985615 13.6555112,9.32065708 13.9033541,9.76601392 C14.1499298,10.2125191 13.6660838,10.5847387 13.3970166,10.6961671 C13.1276721,10.8075954 12.9717358,10.9186673 12.5681151,10.7186586 Z M13.8896532,12.8419737 L13.2820244,11.8863196 C13.1563409,11.6874592 13.2215981,11.4420319 13.4254082,11.337256 L14.0046057,11.0406682 C14.2088118,10.9368031 14.4644158,11.0210673 14.5730722,11.2289955 L15.052404,12.1469129 C15.1614565,12.3544452 15.0871709,12.6209782 14.8905281,12.7383066 L14.4763743,12.9848823 C14.2797711,13.1036362 14.0152971,13.0389333 13.8896532,12.8419737 Z M16.1259805,15.3486354 C15.9990299,14.943708 15.0297145,14.9169398 14.5957618,14.307252 C14.1603836,13.6995836 14.5202091,13.3865231 14.6713541,13.2420306 C16.4314778,12.2549754 16.1259805,15.3486354 16.1259805,15.3486354 Z M17.0317018,9.41375159 C17.0317018,9.62627316 16.8578277,9.79907811 16.6447517,9.79907811 L14.6004343,9.79907811 C14.5779032,9.68024501 14.5413148,9.56141191 14.4795422,9.4499836 C14.4263227,9.35514679 14.2918088,9.09938438 14.1043923,8.74292467 C13.8338203,8.22843001 13.4452071,7.49262305 13.0291923,6.71773302 L16.6445538,6.71773302 C16.8576693,6.71773302 17.0315434,6.89089435 17.0315434,7.10258438 L17.0315434,9.41375159 L17.0317018,9.41375159 Z" transform="translate(12 12)"/>
  </g>
</svg>
