<svg xmlns="http://www.w3.org/2000/svg" width="92" height="42" viewBox="0 0 92 42">
  <defs>
    <linearGradient id="behance-a" x1="50%" x2="50%" y1="0%" y2="100%">
      <stop offset="0%" stop-color="#004FFF"/>
      <stop offset="100%" stop-color="#0C3CFF"/>
    </linearGradient>
  </defs>
  <g fill="none" fill-rule="evenodd" transform="translate(1 1)">
    <rect width="90" height="40" fill="url(#behance-a)" fill-rule="nonzero" stroke="#0048FF" rx="2"/>
    <text fill="#FFF" font-family="SFProDisplay-Regular, SF Pro Display" font-size="14" transform="translate(40 12)">
      <tspan x="0" y="13">Follow</tspan>
    </text>
    <path fill="#FFF" fill-rule="nonzero" d="M14.6666667,1.33333333 L10,1.33333333 L10,0 L14.6666667,0 L14.6666667,1.33333333 Z M15.8173333,8 C15.5226667,8.86466667 14.4646667,10 12.4166667,10 C10.3673333,10 8.70733333,8.84733333 8.70733333,6.21666667 C8.70733333,3.61 10.2573333,2.27 12.3513333,2.27 C14.406,2.27 15.6606667,3.458 15.9346667,5.22066667 C15.9866667,5.558 16.0073333,6.01266667 15.998,6.64733333 L10.6466667,6.64733333 C10.7333333,8.788 12.9686667,8.85533333 13.7053333,8 L15.8173333,8 Z M10.6933333,5.33333333 L14.0033333,5.33333333 C13.9333333,4.302 13.246,3.854 12.352,3.854 C11.3746667,3.854 10.834,4.366 10.6933333,5.33333333 Z M4.31066667,9.992 L-8.8817842e-16,9.992 L-8.8817842e-16,0.014 L4.63533333,0.014 C8.286,0.068 8.35533333,3.64333333 6.44866667,4.618 C8.756,5.458 8.83333333,9.992 4.31066667,9.992 Z M2,4 L4.38933333,4 C6.06133333,4 6.32666667,2 4.18133333,2 L2,2 L2,4 Z M4.26066667,6 L2,6 L2,8.01066667 L4.22733333,8.01066667 C6.264,8.01066667 6.13933333,6 4.26066667,6 L4.26066667,6 Z" transform="translate(12 15)"/>
  </g>
</svg>
