<svg xmlns="http://www.w3.org/2000/svg" xmlns:xlink="http://www.w3.org/1999/xlink" width="92" height="42" viewBox="0 0 92 42">
  <defs>
    <linearGradient id="behance-a" x1="50%" x2="50%" y1="0%" y2="100%">
      <stop offset="0%" stop-color="#004FFF"/>
      <stop offset="100%" stop-color="#0C3CFF"/>
    </linearGradient>
    <path id="behance-b" d="M2.1875,13 L0.95703125,13 L0.95703125,3.13574219 L6.9453125,3.13574219 L6.9453125,4.24316406 L2.1875,4.24316406 L2.1875,7.63378906 L6.55566406,7.63378906 L6.55566406,8.72753906 L2.1875,8.72753906 L2.1875,13 Z M10.8349609,13.1230469 C8.86621094,13.1230469 7.54003906,11.7080078 7.54003906,9.4453125 C7.54003906,7.17578125 8.86621094,5.76757812 10.8349609,5.76757812 C12.796875,5.76757812 14.1230469,7.17578125 14.1230469,9.4453125 C14.1230469,11.7080078 12.796875,13.1230469 10.8349609,13.1230469 Z M10.8349609,12.0771484 C12.0927734,12.0771484 12.9130859,11.1201172 12.9130859,9.4453125 C12.9130859,7.77050781 12.0927734,6.81347656 10.8349609,6.81347656 C9.57714844,6.81347656 8.75,7.77050781 8.75,9.4453125 C8.75,11.1201172 9.57714844,12.0771484 10.8349609,12.0771484 Z M15.3808594,13 L15.3808594,3.13574219 L16.5703125,3.13574219 L16.5703125,13 L15.3808594,13 Z M18.2382812,13 L18.2382812,3.13574219 L19.4277344,3.13574219 L19.4277344,13 L18.2382812,13 Z M23.9804688,13.1230469 C22.0117188,13.1230469 20.6855469,11.7080078 20.6855469,9.4453125 C20.6855469,7.17578125 22.0117188,5.76757812 23.9804688,5.76757812 C25.9423828,5.76757812 27.2685547,7.17578125 27.2685547,9.4453125 C27.2685547,11.7080078 25.9423828,13.1230469 23.9804688,13.1230469 Z M23.9804688,12.0771484 C25.2382812,12.0771484 26.0585938,11.1201172 26.0585938,9.4453125 C26.0585938,7.77050781 25.2382812,6.81347656 23.9804688,6.81347656 C22.7226562,6.81347656 21.8955078,7.77050781 21.8955078,9.4453125 C21.8955078,11.1201172 22.7226562,12.0771484 23.9804688,12.0771484 Z M37.5087891,5.890625 L35.5263672,13 L34.3164062,13 L32.7099609,7.49707031 L32.6826172,7.49707031 L31.0830078,13 L29.8730469,13 L27.8837891,5.890625 L29.0664062,5.890625 L30.4882812,11.6738281 L30.515625,11.6738281 L32.1220703,5.890625 L33.2705078,5.890625 L34.8837891,11.6738281 L34.9111328,11.6738281 L36.3330078,5.890625 L37.5087891,5.890625 Z"/>
  </defs>
  <g fill="none" transform="translate(1 1)">
    <rect width="90" height="40" fill="url(#behance-a)" stroke="#0048FF" rx="2"/>
    <g fill="#FFF" transform="translate(40 12)">
      <use xlink:href="#behance-b"/>
      <use xlink:href="#behance-b"/>
    </g>
    <path fill="#FFF" d="M14.6666667,1.33333333 L10,1.33333333 L10,0 L14.6666667,0 L14.6666667,1.33333333 Z M15.8173333,8 C15.5226667,8.86466667 14.4646667,10 12.4166667,10 C10.3673333,10 8.70733333,8.84733333 8.70733333,6.21666667 C8.70733333,3.61 10.2573333,2.27 12.3513333,2.27 C14.406,2.27 15.6606667,3.458 15.9346667,5.22066667 C15.9866667,5.558 16.0073333,6.01266667 15.998,6.64733333 L10.6466667,6.64733333 C10.7333333,8.788 12.9686667,8.85533333 13.7053333,8 L15.8173333,8 Z M10.6933333,5.33333333 L14.0033333,5.33333333 C13.9333333,4.302 13.246,3.854 12.352,3.854 C11.3746667,3.854 10.834,4.366 10.6933333,5.33333333 Z M4.31066667,9.992 L-8.8817842e-16,9.992 L-8.8817842e-16,0.014 L4.63533333,0.014 C8.286,0.068 8.35533333,3.64333333 6.44866667,4.618 C8.756,5.458 8.83333333,9.992 4.31066667,9.992 Z M2,4 L4.38933333,4 C6.06133333,4 6.32666667,2 4.18133333,2 L2,2 L2,4 Z M4.26066667,6 L2,6 L2,8.01066667 L4.22733333,8.01066667 C6.264,8.01066667 6.13933333,6 4.26066667,6 L4.26066667,6 Z" transform="translate(12 15)"/>
  </g>
</svg>
