<svg xmlns="http://www.w3.org/2000/svg" xmlns:xlink="http://www.w3.org/1999/xlink" width="176" height="42" viewBox="0 0 176 42">
  <defs>
    <linearGradient id="github-a" x1="50%" x2="50%" y1="0%" y2="100%">
      <stop offset="0%" stop-color="#F9FBFB"/>
      <stop offset="100%" stop-color="#EEF2F5"/>
    </linearGradient>
    <path id="github-b" d="M2.1875,13 L0.95703125,13 L0.95703125,3.13574219 L6.9453125,3.13574219 L6.9453125,4.24316406 L2.1875,4.24316406 L2.1875,7.63378906 L6.55566406,7.63378906 L6.55566406,8.72753906 L2.1875,8.72753906 L2.1875,13 Z M10.8349609,13.1230469 C8.86621094,13.1230469 7.54003906,11.7080078 7.54003906,9.4453125 C7.54003906,7.17578125 8.86621094,5.76757812 10.8349609,5.76757812 C12.796875,5.76757812 14.1230469,7.17578125 14.1230469,9.4453125 C14.1230469,11.7080078 12.796875,13.1230469 10.8349609,13.1230469 Z M10.8349609,12.0771484 C12.0927734,12.0771484 12.9130859,11.1201172 12.9130859,9.4453125 C12.9130859,7.77050781 12.0927734,6.81347656 10.8349609,6.81347656 C9.57714844,6.81347656 8.75,7.77050781 8.75,9.4453125 C8.75,11.1201172 9.57714844,12.0771484 10.8349609,12.0771484 Z M15.3808594,13 L15.3808594,3.13574219 L16.5703125,3.13574219 L16.5703125,13 L15.3808594,13 Z M18.2382812,13 L18.2382812,3.13574219 L19.4277344,3.13574219 L19.4277344,13 L18.2382812,13 Z M23.9804688,13.1230469 C22.0117188,13.1230469 20.6855469,11.7080078 20.6855469,9.4453125 C20.6855469,7.17578125 22.0117188,5.76757812 23.9804688,5.76757812 C25.9423828,5.76757812 27.2685547,7.17578125 27.2685547,9.4453125 C27.2685547,11.7080078 25.9423828,13.1230469 23.9804688,13.1230469 Z M23.9804688,12.0771484 C25.2382812,12.0771484 26.0585938,11.1201172 26.0585938,9.4453125 C26.0585938,7.77050781 25.2382812,6.81347656 23.9804688,6.81347656 C22.7226562,6.81347656 21.8955078,7.77050781 21.8955078,9.4453125 C21.8955078,11.1201172 22.7226562,12.0771484 23.9804688,12.0771484 Z M37.5087891,5.890625 L35.5263672,13 L34.3164062,13 L32.7099609,7.49707031 L32.6826172,7.49707031 L31.0830078,13 L29.8730469,13 L27.8837891,5.890625 L29.0664062,5.890625 L30.4882812,11.6738281 L30.515625,11.6738281 L32.1220703,5.890625 L33.2705078,5.890625 L34.8837891,11.6738281 L34.9111328,11.6738281 L36.3330078,5.890625 L37.5087891,5.890625 Z"/>
    <path id="github-c" d="M6.08898437,7.10058594 C5.24816406,7.10058594 4.74230469,7.77050781 4.74230469,8.8984375 C4.74230469,10.0126953 5.24816406,10.6962891 6.08214844,10.6962891 C6.94347656,10.6962891 7.4971875,9.99902344 7.4971875,8.8984375 C7.4971875,7.79785156 6.9503125,7.10058594 6.08898437,7.10058594 Z M6.32824219,3.15625 C9.52746094,3.15625 11.8175,5.1796875 11.8175,8.20117188 C11.8175,10.3818359 10.833125,11.8105469 9.20617187,11.8105469 C8.40636719,11.8105469 7.74328125,11.3662109 7.63390625,10.6894531 L7.56554687,10.6894531 C7.2784375,11.3798828 6.66320312,11.7626953 5.86339844,11.7626953 C4.44152344,11.7626953 3.48449219,10.6005859 3.48449219,8.86425781 C3.48449219,7.203125 4.44835937,6.0546875 5.83605469,6.0546875 C6.5675,6.0546875 7.21691406,6.43066406 7.47667969,7.01855469 L7.551875,7.01855469 L7.551875,6.19140625 L8.70714844,6.19140625 L8.70714844,10.0742188 C8.70714844,10.5253906 8.94640625,10.8330078 9.43859375,10.8330078 C10.1973828,10.8330078 10.7510937,9.88964844 10.7510937,8.23535156 C10.7510937,5.74707031 8.92589844,4.09960938 6.25304687,4.09960938 C3.60070312,4.09960938 1.7003125,6.08203125 1.7003125,8.8984375 C1.7003125,11.9130859 3.71007812,13.6083984 6.48546875,13.6083984 C7.333125,13.6083984 8.20128906,13.4921875 8.62511719,13.3144531 L8.62511719,14.2578125 C8.0440625,14.4492188 7.27160156,14.5585938 6.43761719,14.5585938 C3.06066406,14.5585938 0.63390625,12.4804688 0.63390625,8.85742188 C0.63390625,5.453125 2.97179687,3.15625 6.32824219,3.15625 Z M15.5430859,11.9541016 C16.5753125,11.9541016 17.3819531,11.2431641 17.3819531,10.3066406 L17.3819531,9.73925781 L15.6114453,9.84863281 C14.7296094,9.91015625 14.2305859,10.2998047 14.2305859,10.9150391 C14.2305859,11.5439453 14.7501172,11.9541016 15.5430859,11.9541016 Z M15.1329297,13.1230469 C13.7247266,13.1230469 12.7403516,12.2480469 12.7403516,10.9560547 C12.7403516,9.69824219 13.7042187,8.92578125 15.4132031,8.83007812 L17.3819531,8.71386719 L17.3819531,8.16015625 C17.3819531,7.36035156 16.8419141,6.88183594 15.9395703,6.88183594 C15.0850781,6.88183594 14.551875,7.29199219 14.4219922,7.93457031 L13.0274609,7.93457031 C13.1094922,6.63574219 14.2169141,5.67871094 15.9942578,5.67871094 C17.7374219,5.67871094 18.8516797,6.6015625 18.8516797,8.04394531 L18.8516797,13 L17.4366406,13 L17.4366406,11.8173828 L17.4024609,11.8173828 C16.9854687,12.6171875 16.0762891,13.1230469 15.1329297,13.1230469 Z M20.2803906,13 L20.2803906,5.80859375 L21.6885937,5.80859375 L21.6885937,7.01855469 L21.7227734,7.01855469 C22.0440625,6.21875 22.7960156,5.68554688 23.7667187,5.68554688 C24.7647656,5.68554688 25.489375,6.19824219 25.7764844,7.09375 L25.8106641,7.09375 C26.1798047,6.21875 27.0274609,5.68554688 28.0528516,5.68554688 C29.4747266,5.68554688 30.4044141,6.62890625 30.4044141,8.05761719 L30.4044141,13 L28.9210156,13 L28.9210156,8.41308594 C28.9210156,7.48339844 28.4219922,6.95019531 27.5469922,6.95019531 C26.6719922,6.95019531 26.0635937,7.59960938 26.0635937,8.50878906 L26.0635937,13 L24.614375,13 L24.614375,8.30371094 C24.614375,7.4765625 24.0880078,6.95019531 23.2540234,6.95019531 C22.3790234,6.95019531 21.7569531,7.63378906 21.7569531,8.55664062 L21.7569531,13 L20.2803906,13 Z M31.8741406,13 L31.8741406,5.80859375 L33.3507031,5.80859375 L33.3507031,13 L31.8741406,13 Z M32.6124219,4.75585938 C32.1407422,4.75585938 31.7579297,4.37988281 31.7579297,3.91503906 C31.7579297,3.44335938 32.1407422,3.06738281 32.6124219,3.06738281 C33.0909375,3.06738281 33.47375,3.44335938 33.47375,3.91503906 C33.47375,4.37988281 33.0909375,4.75585938 32.6124219,4.75585938 Z M34.8614453,13 L34.8614453,5.80859375 L36.2696484,5.80859375 L36.2696484,7.03222656 L36.3038281,7.03222656 C36.5430859,6.19140625 37.1856641,5.69238281 38.0333203,5.69238281 C38.2452344,5.69238281 38.4298047,5.7265625 38.5391797,5.74707031 L38.5391797,7.12109375 C38.4229687,7.07324219 38.1632031,7.0390625 37.8760937,7.0390625 C36.9258984,7.0390625 36.3380078,7.67480469 36.3380078,8.69335938 L36.3380078,13 L34.8614453,13 Z M39.5098828,13 L39.5098828,3.13574219 L40.9727734,3.13574219 L40.9727734,7.01171875 L41.0069531,7.01171875 C41.4034375,6.17089844 42.1895703,5.68554688 43.2833203,5.68554688 C44.8624219,5.68554688 45.8057812,6.73828125 45.8057812,8.36523438 L45.8057812,13 L44.3223828,13 L44.3223828,8.65234375 C44.3223828,7.59277344 43.7891797,6.95703125 42.7501172,6.95703125 C41.6563672,6.95703125 40.9864453,7.70898438 40.9864453,8.84375 L40.9864453,13 L39.5098828,13 Z M49.7432812,11.9541016 C50.7755078,11.9541016 51.5821484,11.2431641 51.5821484,10.3066406 L51.5821484,9.73925781 L49.8116406,9.84863281 C48.9298047,9.91015625 48.4307812,10.2998047 48.4307812,10.9150391 C48.4307812,11.5439453 48.9503125,11.9541016 49.7432812,11.9541016 Z M49.333125,13.1230469 C47.9249219,13.1230469 46.9405469,12.2480469 46.9405469,10.9560547 C46.9405469,9.69824219 47.9044141,8.92578125 49.6133984,8.83007812 L51.5821484,8.71386719 L51.5821484,8.16015625 C51.5821484,7.36035156 51.0421094,6.88183594 50.1397656,6.88183594 C49.2852734,6.88183594 48.7520703,7.29199219 48.6221875,7.93457031 L47.2276562,7.93457031 C47.3096875,6.63574219 48.4171094,5.67871094 50.1944531,5.67871094 C51.9376172,5.67871094 53.051875,6.6015625 53.051875,8.04394531 L53.051875,13 L51.6368359,13 L51.6368359,11.8173828 L51.6026562,11.8173828 C51.1856641,12.6171875 50.2764844,13.1230469 49.333125,13.1230469 Z M54.4805859,13 L54.4805859,5.80859375 L55.8887891,5.80859375 L55.8887891,7.01171875 L55.9229687,7.01171875 C56.3126172,6.19140625 57.0782422,5.68554688 58.1856641,5.68554688 C59.7716016,5.68554688 60.6807812,6.69726562 60.6807812,8.34472656 L60.6807812,13 L59.1973828,13 L59.1973828,8.63183594 C59.1973828,7.55175781 58.6915234,6.95703125 57.6661328,6.95703125 C56.6270703,6.95703125 55.9571484,7.6953125 55.9571484,8.80957031 L55.9571484,13 L54.4805859,13 Z M65.1925,13.1367188 C63.1348828,13.1367188 61.7813672,11.7216797 61.7813672,9.40429688 C61.7813672,7.09375 63.1417187,5.67871094 65.1925,5.67871094 C67.2432812,5.67871094 68.6036328,7.09375 68.6036328,9.40429688 C68.6036328,11.7216797 67.2501172,13.1367188 65.1925,13.1367188 Z M65.1925,11.9199219 C66.3546094,11.9199219 67.0997266,11.0039062 67.0997266,9.40429688 C67.0997266,7.81152344 66.3477734,6.89550781 65.1925,6.89550781 C64.0372266,6.89550781 63.2852734,7.81152344 63.2852734,9.40429688 C63.2852734,11.0039062 64.0372266,11.9199219 65.1925,11.9199219 Z M75.6925,5.80859375 L73.1153516,13 L71.5294141,13 L68.9385937,5.80859375 L70.5108594,5.80859375 L72.3155469,11.5576172 L72.3428906,11.5576172 L74.1475781,5.80859375 L75.6925,5.80859375 Z"/>
  </defs>
  <g fill="none" transform="translate(1 1)">
    <rect width="174" height="40" fill="url(#github-a)" stroke="#C7C9CD" rx="2"/>
    <g fill="#000" transform="translate(40 12)">
      <use xlink:href="#github-b"/>
      <use xlink:href="#github-b"/>
    </g>
    <g fill="#000" transform="translate(83 12)">
      <use xlink:href="#github-c"/>
      <use xlink:href="#github-c"/>
    </g>
    <path fill="#161514" d="M19.9159377,12 C15.5448704,12 12,15.6723364 12,20.2027094 C12,23.8267057 14.2681533,26.9008335 17.4140193,27.9854643 C17.8101077,28.0609957 17.9544492,27.8077138 17.9544492,27.5901834 C17.9544492,27.3958159 17.9476452,26.8796847 17.9437572,26.1953702 C15.7416997,26.6908562 15.2770854,25.0956332 15.2770854,25.0956332 C14.9169608,24.147966 14.3979148,23.8956911 14.3979148,23.8956911 C13.6791236,23.3871131 14.4523466,23.3971839 14.4523466,23.3971839 C15.2469536,23.4550913 15.664912,24.242632 15.664912,24.242632 C16.3710672,25.4959495 17.5180229,25.1339024 17.9690291,24.9239251 C18.0409569,24.3941983 18.2455621,24.0326547 18.4715512,23.8277129 C16.7136959,23.6207568 14.865445,22.9168043 14.865445,19.7736911 C14.865445,18.8783923 15.1740538,18.1457378 15.6804639,17.5727063 C15.5988162,17.3652467 15.3271433,16.5308766 15.7582236,15.401934 C15.7582236,15.401934 16.4225831,15.1813823 17.9350093,16.2428502 C18.5663208,16.0605678 19.2438022,15.9699301 19.9169097,15.9664053 C20.5895311,15.9699301 21.2665265,16.0605678 21.8988101,16.2428502 C23.4102643,15.1813823 24.0736517,15.401934 24.0736517,15.401934 C24.5057041,16.5308766 24.2340311,17.3652467 24.1528694,17.5727063 C24.6602515,18.1457378 24.9664303,18.8783923 24.9664303,19.7736911 C24.9664303,22.9248609 23.1152634,23.6182391 21.3520622,23.8211668 C21.6358851,24.0744487 21.8890901,24.5749701 21.8890901,25.3403549 C21.8890901,26.4365673 21.8793701,27.3212916 21.8793701,27.5901834 C21.8793701,27.809728 22.0222536,28.0650241 22.4236881,27.9849607 C25.567124,26.8978123 27.8333333,23.8256987 27.8333333,20.2027094 C27.8333333,15.6723364 24.2884629,12 19.9159377,12"/>
  </g>
</svg>
