<svg xmlns="http://www.w3.org/2000/svg" width="176" height="42" viewBox="0 0 176 42">
  <defs>
    <linearGradient id="unknown-a" x1="50%" x2="50%" y1="0%" y2="100%">
      <stop offset="0%" stop-color="#F9FBFB"/>
      <stop offset="100%" stop-color="#EEF2F5"/>
    </linearGradient>
  </defs>
  <g fill="none" fill-rule="evenodd" transform="translate(1 1)">
    <rect width="174" height="40" fill="url(#unknown-a)" fill-rule="nonzero" stroke="#C7C9CD" rx="2"/>
    <text fill="#000" font-family="SFProDisplay-Regular, SF Pro Display" font-size="14">
      <tspan x="40" y="25">Follow</tspan>
    </text>
    <text fill="#000" font-family="SFProDisplay-Medium, SF Pro Display" font-size="14" font-weight="400">
      <tspan x="83.005" y="25">@amirhanov</tspan>
    </text>
    <path fill="#161514" fill-rule="nonzero" d="M7.91593767,0 C3.54487042,0 0,3.67233641 0,8.20270944 C0,11.8267057 2.26815331,14.9008335 5.41401926,15.9854643 C5.81010774,16.0609957 5.95444919,15.8077138 5.95444919,15.5901834 C5.95444919,15.3958159 5.94764521,14.8796847 5.94375723,14.1953702 C3.74169966,14.6908562 3.27708544,13.0956332 3.27708544,13.0956332 C2.91696082,12.147966 2.39791481,11.8956911 2.39791481,11.8956911 C1.67912357,11.3871131 2.4523466,11.3971839 2.4523466,11.3971839 C3.24695356,11.4550913 3.66491196,12.242632 3.66491196,12.242632 C4.37106725,13.4959495 5.51802286,13.1339024 5.96902913,12.9239251 C6.04095685,12.3941983 6.24556207,12.0326547 6.4715512,11.8277129 C4.71369594,11.6207568 2.86544502,10.9168043 2.86544502,7.77369113 C2.86544502,6.87839233 3.17405384,6.1457378 3.6804639,5.57270628 C3.59881621,5.36524672 3.32714325,4.53087659 3.7582236,3.40193401 C3.7582236,3.40193401 4.42258305,3.18138234 5.93500926,4.2428502 C6.56632084,4.06056777 7.24380224,3.96993009 7.91690967,3.9664053 C8.58953109,3.96993009 9.26652649,4.06056777 9.89881007,4.2428502 C11.4102643,3.18138234 12.0736517,3.40193401 12.0736517,3.40193401 C12.5057041,4.53087659 12.2340311,5.36524672 12.1528694,5.57270628 C12.6602515,6.1457378 12.9664303,6.87839233 12.9664303,7.77369113 C12.9664303,10.9248609 11.1152634,11.6182391 9.35206217,11.8211668 C9.63588508,12.0744487 9.88909011,12.5749701 9.88909011,13.3403549 C9.88909011,14.4365673 9.87937015,15.3212916 9.87937015,15.5901834 C9.87937015,15.809728 10.0222536,16.0650241 10.4236881,15.9849607 C13.567124,14.8978123 15.8333333,11.8256987 15.8333333,8.20270944 C15.8333333,3.67233641 12.2884629,0 7.91593767,0" transform="translate(12 12)"/>
  </g>
</svg>
