<svg xmlns="http://www.w3.org/2000/svg" xmlns:xlink="http://www.w3.org/1999/xlink" width="92" height="42" viewBox="0 0 92 42">
  <defs>
    <linearGradient id="youtube-a" x1="50%" x2="50%" y1="0%" y2="100%">
      <stop offset="0%" stop-color="red"/>
      <stop offset="100%" stop-color="red"/>
    </linearGradient>
    <path id="youtube-b" d="M2.1875,13 L0.95703125,13 L0.95703125,3.13574219 L6.9453125,3.13574219 L6.9453125,4.24316406 L2.1875,4.24316406 L2.1875,7.63378906 L6.55566406,7.63378906 L6.55566406,8.72753906 L2.1875,8.72753906 L2.1875,13 Z M10.8349609,13.1230469 C8.86621094,13.1230469 7.54003906,11.7080078 7.54003906,9.4453125 C7.54003906,7.17578125 8.86621094,5.76757812 10.8349609,5.76757812 C12.796875,5.76757812 14.1230469,7.17578125 14.1230469,9.4453125 C14.1230469,11.7080078 12.796875,13.1230469 10.8349609,13.1230469 Z M10.8349609,12.0771484 C12.0927734,12.0771484 12.9130859,11.1201172 12.9130859,9.4453125 C12.9130859,7.77050781 12.0927734,6.81347656 10.8349609,6.81347656 C9.57714844,6.81347656 8.75,7.77050781 8.75,9.4453125 C8.75,11.1201172 9.57714844,12.0771484 10.8349609,12.0771484 Z M15.3808594,13 L15.3808594,3.13574219 L16.5703125,3.13574219 L16.5703125,13 L15.3808594,13 Z M18.2382812,13 L18.2382812,3.13574219 L19.4277344,3.13574219 L19.4277344,13 L18.2382812,13 Z M23.9804688,13.1230469 C22.0117188,13.1230469 20.6855469,11.7080078 20.6855469,9.4453125 C20.6855469,7.17578125 22.0117188,5.76757812 23.9804688,5.76757812 C25.9423828,5.76757812 27.2685547,7.17578125 27.2685547,9.4453125 C27.2685547,11.7080078 25.9423828,13.1230469 23.9804688,13.1230469 Z M23.9804688,12.0771484 C25.2382812,12.0771484 26.0585938,11.1201172 26.0585938,9.4453125 C26.0585938,7.77050781 25.2382812,6.81347656 23.9804688,6.81347656 C22.7226562,6.81347656 21.8955078,7.77050781 21.8955078,9.4453125 C21.8955078,11.1201172 22.7226562,12.0771484 23.9804688,12.0771484 Z M37.5087891,5.890625 L35.5263672,13 L34.3164062,13 L32.7099609,7.49707031 L32.6826172,7.49707031 L31.0830078,13 L29.8730469,13 L27.8837891,5.890625 L29.0664062,5.890625 L30.4882812,11.6738281 L30.515625,11.6738281 L32.1220703,5.890625 L33.2705078,5.890625 L34.8837891,11.6738281 L34.9111328,11.6738281 L36.3330078,5.890625 L37.5087891,5.890625 Z"/>
    <polygon id="youtube-c" points="0 .133 15.932 .133 15.932 11.862 0 11.862"/>
  </defs>
  <g fill="none" fill-rule="evenodd" transform="translate(1 1)">
    <rect width="90" height="40" fill="url(#youtube-a)" fill-rule="nonzero" stroke="red" rx="2"/>
    <g fill="#FFF" fill-rule="nonzero" transform="translate(40 12)">
      <use xlink:href="#youtube-b"/>
      <use xlink:href="#youtube-b"/>
    </g>
    <g transform="translate(12 14)">
      <g transform="translate(0 .005)">
        <mask id="youtube-d" fill="#fff">
          <use xlink:href="#youtube-c"/>
        </mask>
        <path fill="#FFF" d="M15.5995279,1.96406897 C15.4163148,1.24310345 14.8763803,0.67537931 14.1908721,0.482689655 C12.9483803,0.132482759 7.96621639,0.132482759 7.96621639,0.132482759 C7.96621639,0.132482759 2.98405246,0.132482759 1.74156066,0.482689655 C1.05605246,0.67537931 0.516118033,1.24310345 0.332904918,1.96406897 C5.24590164e-05,3.27082759 5.24590164e-05,5.99731034 5.24590164e-05,5.99731034 C5.24590164e-05,5.99731034 5.24590164e-05,8.7237931 0.332904918,10.0304138 C0.516118033,10.7513793 1.05605246,11.3192414 1.74156066,11.511931 C2.98405246,11.8621379 7.96621639,11.8621379 7.96621639,11.8621379 C7.96621639,11.8621379 12.9483803,11.8621379 14.1908721,11.511931 C14.8763803,11.3192414 15.4163148,10.7513793 15.5995279,10.0304138 C15.9325115,8.7237931 15.9325115,5.99731034 15.9325115,5.99731034 C15.9325115,5.99731034 15.9325115,3.27082759 15.5995279,1.96406897" mask="url(#youtube-d)"/>
      </g>
      <polygon fill="red" points="6.373 8.516 10.512 6.003 6.373 3.489"/>
    </g>
  </g>
</svg>
